<?xml version="1.0" ?><!DOCTYPE svg  PUBLIC '-//W3C//DTD SVG 1.1//EN'  'http://www.w3.org/Graphics/SVG/1.1/DTD/svg11.dtd'><svg enable-background="new 0 0 128 128" id="Слой_1" version="1.1" viewBox="0 0 128 128" xml:space="preserve" xmlns="http://www.w3.org/2000/svg" xmlns:xlink="http://www.w3.org/1999/xlink"><g><path d="M33.9,121.3c-10.7,1.1-19.9-7.3-19.9-18v0l0-50l-3-3c-4.5-4.5-7-10.5-7-16.8v0C4,21.8,12.4,11.9,23.9,10   l0,0c26.6-4.4,53.7-4.4,80.2,0l0,0c11.5,1.9,19.9,11.8,19.9,23.5v0c0,6.3-2.5,12.4-7,16.8l-3,3l0,50v0c0,10.7-9.2,19.1-19.9,18l0,0   C74.1,119.3,53.9,119.3,33.9,121.3L33.9,121.3z" fill="#EDB77F"/><path d="M95.9,111.4c-0.3,0-0.6,0-0.8,0c-10.3-1-20.8-1.6-31.1-1.6s-20.8,0.5-31.1,1.6c-0.3,0-0.6,0-0.8,0   c-2.1,0-4.2-0.8-5.7-2.4c-1.5-1.5-2.4-3.6-2.4-5.7l0-54.1l-6-6c-2.6-2.6-4-6.1-4-9.7c0-6.8,4.8-12.5,11.5-13.6   c12.7-2.1,25.6-3.2,38.5-3.2s25.8,1.1,38.5,3.2c6.7,1.1,11.5,6.8,11.5,13.6c0,3.7-1.4,7.1-4,9.7l-6,6l0,54.1   C104,107.7,100.4,111.4,95.9,111.4z" fill="#FFE3C1"/><g><path d="M69,119.8c8.4,0.1,16.8,0.6,25.1,1.4h0c2,0.2,4,0.1,5.8-0.4C89.6,120,79.3,119.7,69,119.8z" fill="#FEE3CA"/><path d="M24,103.3L24,103.3l0-53l-3-3c-4.5-4.5-7-7.5-7-13.8c0-11.6,8.4-21.6,19.9-23.5h0C45.5,8,57.2,6.9,69,6.7    C53.9,6.4,38.8,7.5,23.9,10h0C12.4,11.9,4,21.8,4,33.4c0,6.3,2.5,12.4,7,16.8l3,3l0,50v0c0,10.7,9.2,19.1,19.9,18    c1.4-0.1,2.8-0.2,4.2-0.4C30.1,119.1,24,111.9,24,103.3z" fill="#FFFFFF"/><path d="M38.1,120.9c1.9,0.4,3.8,0.6,5.8,0.4h0c8.3-0.8,16.7-1.3,25.1-1.4C58.7,119.7,48.3,120,38.1,120.9z" fill="#FEE3CA"/></g><g><path d="M95.9,122.9c-0.7,0-1.3,0-2-0.1c-9.9-1-20-1.5-29.9-1.5s-20,0.5-29.9,1.5c-5.9,0.6-11.6-1.5-15.8-5.6    c-3.7-3.7-5.8-8.6-5.8-13.9l0-49.4l-2.6-2.6c-4.8-4.8-7.4-11.1-7.4-17.9c0-12.4,8.9-22.9,21.1-24.9C36.9,6.3,50.5,5.1,64,5.1    s27.1,1.1,40.4,3.3c12.2,2,21.1,12.5,21.1,24.9c0,6.8-2.6,13.1-7.4,17.9l-2.6,2.6l0,49.4C115.5,114.1,106.7,122.9,95.9,122.9z     M64,118.3c10.1,0,20.2,0.5,30.2,1.5c0.6,0.1,1.1,0.1,1.7,0.1c9.1,0,16.6-7.4,16.6-16.6l0-50c0-0.4,0.2-0.8,0.4-1.1l3-3    c4.2-4.2,6.5-9.8,6.5-15.8c0-10.9-7.8-20.2-18.6-22c-26.3-4.4-53.5-4.4-79.8,0c-10.8,1.8-18.6,11-18.6,22c0,6,2.3,11.6,6.5,15.8    l3,3c0.3,0.3,0.4,0.7,0.4,1.1l0,50c0,4.5,1.7,8.6,4.9,11.8c3.5,3.5,8.4,5.2,13.4,4.7C43.8,118.8,53.9,118.3,64,118.3z" fill="#454B54"/></g><g><path d="M24,104.8L24,104.8c-0.8,0-1.5-0.7-1.5-1.5l0-53.5L17,44.2c-2.9-2.9-4.5-6.7-4.5-10.8    c0-7.5,5.4-13.8,12.8-15.1C38,16.2,51.1,15.1,64,15.1s26,1.1,38.7,3.2c0.8,0.1,1.4,0.9,1.2,1.7c-0.1,0.8-0.9,1.4-1.7,1.2    c-25.2-4.2-51.3-4.2-76.5,0c-5.9,1-10.3,6.1-10.3,12.1c0,3.3,1.3,6.4,3.6,8.7l6,6c0.3,0.3,0.4,0.7,0.4,1.1l0,54.1    C25.5,104.1,24.8,104.8,24,104.8z" fill="#454B54"/></g><g><path d="M95.9,112.9c-0.3,0-0.7,0-1,0c-0.8-0.1-1.4-0.8-1.3-1.6c0.1-0.8,0.8-1.4,1.6-1.3c3.9,0.4,7.3-2.7,7.3-6.6    c0-0.8,0.7-1.5,1.5-1.5s1.5,0.7,1.5,1.5C105.5,108.6,101.2,112.9,95.9,112.9z" fill="#454B54"/></g></g></svg>