<?xml version="1.0" ?><!DOCTYPE svg  PUBLIC '-//W3C//DTD SVG 1.1//EN'  'http://www.w3.org/Graphics/SVG/1.1/DTD/svg11.dtd'><svg enable-background="new 0 0 128 128" id="Слой_1" version="1.1" viewBox="0 0 128 128" xml:space="preserve" xmlns="http://www.w3.org/2000/svg" xmlns:xlink="http://www.w3.org/1999/xlink"><g><path d="M4,53.1c0,0,0,17.9,0,21.8l0,0c0,13.6,16.5,24.5,35.5,24.5h19.1h10.9h42.9c6.5,0,11.7-5.2,11.7-11.7   c0-4.9,0-21.8,0-21.8" fill="#FAC4BC"/><path d="M4,74.9c0,13.6,16.5,24.5,35.5,24.5h19.1h0.9c-18.9,0-35.5-11-35.5-24.5c0-3.1,0-14.8,0-19.7L4,53.1   C4,53.1,4,71,4,74.9z" fill="#FFFFFF"/><path d="M73.9,40.8L73.9,40.8c-9.9-7.9-22.3-12.3-35-12.3h-0.4C14,29,4,39.5,4,53.1v0c0,16.7,16.5,24.5,35.5,24.5   h19.1h10.9h42.9c6.5,0,11.7-5.2,11.7-11.7v0c0-5.8-4.3-10.7-10-11.6l-13-1.9C91,51.1,81.7,47.1,73.9,40.8z" fill="#E97867"/><path d="M38.5,28.5C14,29,4,39.5,4,53.1v0c0,16.7,16.5,24.5,35.5,24.5h10C30.5,77.6,14,69.8,14,53.1v0   c0-12.7,8.7-22.7,29.9-24.3c-1.6-0.1-3.3-0.2-5-0.2H38.5z" fill="#FFFFFF"/><path d="M43.5,52.3c0,2-4,3.5-7.9,3.5s-7.1-1.6-7.1-3.5s3.2-3.5,7.1-3.5S43.5,50.3,43.5,52.3z" fill="#F8F7FB"/><g><path d="M14,54.6c-0.8,0-1.5-0.7-1.5-1.5c0-10.8,8.5-16,26-16c0.8,0,1.5,0.7,1.5,1.5S39.4,40,38.5,40    c-20.7,0-23,7.4-23,13C15.5,53.9,14.8,54.6,14,54.6z" fill="#454B54"/></g><g><path d="M112.6,65.8c-0.1,0-0.1,0-0.2,0l-13-1.9c-11.9-1.7-23.2-6.6-32.6-14.1c-0.6-0.5-0.8-1.5-0.2-2.1    c0.5-0.6,1.5-0.8,2.1-0.2c9,7.2,19.8,11.9,31.2,13.5l13,1.9c0.8,0.1,1.4,0.9,1.3,1.7C113.9,65.2,113.3,65.8,112.6,65.8z" fill="#454B54"/></g><path d="M114.2,52.9l-13-1.9c-9.6-1.4-18.7-5.3-26.3-11.4C64.7,31.5,51.9,27,38.9,27h-0.4c-22.9,0.4-36,9.9-36,26   v21.8c0,14.1,16.9,26,37,26h72.9c7.3,0,13.2-5.9,13.2-13.2V66C125.5,59.4,120.6,53.8,114.2,52.9z M38.5,30h0.4   c12.3,0,24.4,4.2,34,11.9c8,6.4,17.6,10.6,27.8,12l13,1.9c5,0.7,8.7,5,8.7,10.1c0,5.6-4.6,10.2-10.2,10.2H39.5c-15.7,0-34-6-34-23   C5.5,38.6,17.2,30.4,38.5,30z M122.5,87.8c0,5.6-4.6,10.2-10.2,10.2H39.5c-18.4,0-34-10.6-34-23V64.5c5.3,9.2,17.5,14.6,34,14.6   h72.9c4.1,0,7.8-1.9,10.2-4.8V87.8z" fill="#454B54"/><g><path d="M35.6,57.3c-4.9,0-8.6-2.2-8.6-5c0-2.9,3.7-5,8.6-5c4.6,0,9.4,1.9,9.4,5C45,55.4,40.3,57.3,35.6,57.3z     M35.6,50.2c-3.4,0-5.6,1.3-5.6,2c0,0.7,2.2,2,5.6,2c3.7,0,6.3-1.4,6.4-2.1C41.9,51.7,39.3,50.2,35.6,50.2z" fill="#454B54"/></g></g></svg>