<?xml version="1.0" ?><svg viewBox="0 0 64 64" xmlns="http://www.w3.org/2000/svg"><g data-name="filled outline" id="filled_outline"><path d="M47,52H13L9.4,44.81a12.857,12.857,0,0,1,.929-13.07h0a12.859,12.859,0,0,1,12.745-5.355L46.472,30.4a10.393,10.393,0,0,1,5.936,3.254h0a10.4,10.4,0,0,1-1.354,15.233Z" style="fill:#c99b50"/><circle cx="32" cy="51" r="5" style="fill:#8dc79d"/><path d="M51,48a3.962,3.962,0,0,0-2.5.9,3.919,3.919,0,0,0-5,0,4,4,0,1,0,0,6.2,3.919,3.919,0,0,0,5,0A3.992,3.992,0,1,0,51,48Z" style="fill:#e06661"/><path d="M13,48a3.962,3.962,0,0,1,2.5.9,3.919,3.919,0,0,1,5,0,4,4,0,1,1,0,6.2,3.919,3.919,0,0,1-5,0A3.992,3.992,0,1,1,13,48Z" style="fill:#e06661"/><path d="M46.472,30.4,37.343,28.83a7.223,7.223,0,0,0-6.272,8.016,7.422,7.422,0,0,0,1.171,3.043h0q.185.276.387.531c3.116,3.906,9.285,3.235,11.851-1.053L49.3,31.319A10.412,10.412,0,0,0,46.472,30.4Z" style="fill:#ba8630"/><path d="M55.13,23.342h0a2.5,2.5,0,1,0-3.466-.7,2.524,2.524,0,0,0,.319.389l-5.872,3.9,2.215,3.331,5.871-3.9a2.458,2.458,0,0,0,.235.444,2.5,2.5,0,1,0,.7-3.466Z" style="fill:#d9d9d9"/><rect height="2" style="fill:#ba8630" width="2" x="17" y="31"/><rect height="2" style="fill:#ba8630" width="2" x="14" y="34"/><rect height="2" style="fill:#ba8630" width="2" x="20" y="34"/><rect height="2" style="fill:#ba8630" width="2" x="23" y="31"/><path d="M23,22a1,1,0,0,1-1-1,4.528,4.528,0,0,1,1.218-3.124c.117-.147.235-.292.344-.448a1,1,0,1,1,1.64,1.144c-.134.193-.278.373-.422.553A2.588,2.588,0,0,0,24,21,1,1,0,0,1,23,22Z" style="fill:#fbedbf"/><path d="M24.871,16a1,1,0,0,1-.961-.728,3.227,3.227,0,0,0-.691-1.149A4.529,4.529,0,0,1,22,11a4.593,4.593,0,0,1,.166-1.269,1,1,0,0,1,1.925.542A2.663,2.663,0,0,0,24,11a2.587,2.587,0,0,0,.781,1.876,5.024,5.024,0,0,1,1.052,1.854A1,1,0,0,1,24.871,16Z" style="fill:#fbedbf"/><path d="M24.871,8a1.042,1.042,0,0,1-.275-.038,1,1,0,0,1-.687-1.237A2.618,2.618,0,0,0,24,6a1,1,0,0,1,2,0,4.578,4.578,0,0,1-.168,1.275A1,1,0,0,1,24.871,8Z" style="fill:#fbedbf"/><path d="M31,22a1,1,0,0,1-1-1,4.53,4.53,0,0,1,1.219-3.126,2.642,2.642,0,0,0,0-3.751,5.038,5.038,0,0,1-1.052-1.85,1,1,0,1,1,1.924-.546,3.24,3.24,0,0,0,.69,1.147,4.615,4.615,0,0,1,0,6.25A2.587,2.587,0,0,0,32,21,1,1,0,0,1,31,22Z" style="fill:#fbedbf"/><path d="M32,9.5a1,1,0,0,1-.781-1.625A2.584,2.584,0,0,0,32,6a1,1,0,0,1,2,0,4.528,4.528,0,0,1-1.219,3.124A1,1,0,0,1,32,9.5Z" style="fill:#fbedbf"/><path d="M39,22a1,1,0,0,1-1-1,4.528,4.528,0,0,1,1.218-3.124c.117-.147.235-.292.344-.448a1,1,0,1,1,1.64,1.144c-.134.193-.278.373-.422.553A2.588,2.588,0,0,0,40,21,1,1,0,0,1,39,22Z" style="fill:#fbedbf"/><path d="M40.871,16a1,1,0,0,1-.962-.728,3.209,3.209,0,0,0-.69-1.149A4.529,4.529,0,0,1,38,11a4.593,4.593,0,0,1,.166-1.269,1,1,0,0,1,1.925.542A2.663,2.663,0,0,0,40,11a2.585,2.585,0,0,0,.781,1.875,5.052,5.052,0,0,1,1.053,1.855A1,1,0,0,1,40.871,16Z" style="fill:#fbedbf"/><path d="M40.872,8a.983.983,0,0,1-.273-.038,1,1,0,0,1-.69-1.234A2.665,2.665,0,0,0,40,6a1,1,0,0,1,2,0,4.614,4.614,0,0,1-.167,1.272A1,1,0,0,1,40.872,8Z" style="fill:#fbedbf"/><path d="M48.326,30.267l-4.846,8.1c-2.566,4.288-8.735,4.959-11.851,1.053-.135-.17-.264-.346-.387-.531h0a7.422,7.422,0,0,1-1.171-3.043,7.245,7.245,0,0,1,6.657-8.07l9.383-.84Z" style="fill:#c99b50"/><path d="M36.838,39H36a1,1,0,0,1,0-2h.838a3.382,3.382,0,0,0,3.213-2.316,1,1,0,0,1,1.9.632A5.38,5.38,0,0,1,36.838,39Z" style="fill:#ba8630"/><circle cx="56" cy="50" r="4" style="fill:#8dc79d"/><circle cx="8" cy="50" r="4" style="fill:#8dc79d"/><path d="M58,58H6a23.627,23.627,0,0,0-2.754-5.631L3,52H61l-.246.369A23.627,23.627,0,0,0,58,58Z" style="fill:#d9d9d9"/><path d="M61,51h-.112A4.917,4.917,0,0,0,55.2,45.08a11.362,11.362,0,0,0-5.372-14.613l4.073-2.708a3.5,3.5,0,1,0,3.262-5.772,3.5,3.5,0,1,0-6.583.775l-4.815,3.2-9.13.816a8.475,8.475,0,0,0-2.254.53L23.249,25.4A13.854,13.854,0,0,0,8.412,45.042C8.274,45.03,8.141,45,8,45a4.952,4.952,0,0,0-4.888,6H3a1,1,0,0,0-.832,1.555l.246.369a22.589,22.589,0,0,1,2.637,5.392A1,1,0,0,0,6,59H58a1,1,0,0,0,.949-.684,22.589,22.589,0,0,1,2.637-5.392l.246-.369A1,1,0,0,0,61,51Zm-5-4a2.948,2.948,0,0,1,2.806,4H53.194A2.948,2.948,0,0,1,56,47ZM52.536,23.866a1,1,0,0,0,.155-1.539,1.5,1.5,0,1,1,2.3-1.9,1.5,1.5,0,0,1-.418,2.079h0l-.353.235a1,1,0,1,0,1.108,1.665l.352-.234a1.5,1.5,0,1,1,1.661,2.5,1.5,1.5,0,0,1-2.08-.42,1.4,1.4,0,0,1-.14-.266,1,1,0,0,0-1.48-.456l-5.039,3.35-.078-.118L47.5,27.216ZM36.817,28.771l8.79-.786L47.143,30.3l-4.521,7.558a6.487,6.487,0,0,1-5.139,3.131A5.879,5.879,0,0,1,32.411,38.8c-.118-.149-.23-.3-.336-.461A6.4,6.4,0,0,1,31.061,35.7,5.832,5.832,0,0,1,32.3,31.215,6.524,6.524,0,0,1,36.817,28.771ZM11.156,32.31a11.907,11.907,0,0,1,11.755-4.94l8.856,1.519a8.36,8.36,0,0,0-1.04,1.087,7.811,7.811,0,0,0-1.645,6.014,8.362,8.362,0,0,0,1.329,3.455c.138.206.283.407.436.6A7.824,7.824,0,0,0,37.041,43c.191,0,.383-.006.576-.019a8.491,8.491,0,0,0,6.721-4.1l4.1-6.849a9.356,9.356,0,0,1,3.147,15.019,4.924,4.924,0,0,0-3.082.635,4.962,4.962,0,0,0-5,0A4.88,4.88,0,0,0,41,47a4.98,4.98,0,0,0-3.556,1.493,5.989,5.989,0,0,0-10.888,0A4.98,4.98,0,0,0,23,47a4.88,4.88,0,0,0-2.5.686,4.962,4.962,0,0,0-5,0,4.951,4.951,0,0,0-3.436-.577,4.978,4.978,0,0,0-.841-.9L10.3,44.363A11.853,11.853,0,0,1,11.156,32.31ZM51.112,51H38.184A3,3,0,0,1,41,49a2.954,2.954,0,0,1,1.872.679,1,1,0,0,0,1.256,0,2.961,2.961,0,0,1,3.744,0,1,1,0,0,0,1.256,0,3.015,3.015,0,0,1,1.971-.66A4.705,4.705,0,0,0,51.112,51ZM36,51H28a4,4,0,0,1,8,0ZM12.9,49.007a3,3,0,0,1,1.972.672,1,1,0,0,0,1.256,0,2.961,2.961,0,0,1,3.744,0,1,1,0,0,0,1.256,0A2.954,2.954,0,0,1,23,49a3,3,0,0,1,2.816,2H12.888a4.738,4.738,0,0,0,.012-1.993ZM8,47a2.948,2.948,0,0,1,2.806,4H5.194A2.948,2.948,0,0,1,8,47ZM57.291,57H6.709a24.555,24.555,0,0,0-1.888-4H27.056c.015,0,.029.008.045.008s.051-.006.076-.008h32A24.555,24.555,0,0,0,57.291,57Z"/><rect height="2" width="2" x="17" y="31"/><rect height="2" width="2" x="14" y="34"/><rect height="2" width="2" x="20" y="34"/><rect height="2" width="2" x="23" y="31"/><path d="M36,39h.838a5.38,5.38,0,0,0,5.111-3.684,1,1,0,0,0-1.9-.632A3.382,3.382,0,0,1,36.838,37H36a1,1,0,0,0,0,2Z"/><path d="M23.562,17.428c-.109.156-.227.3-.344.448A4.528,4.528,0,0,0,22,21a1,1,0,0,0,2,0,2.588,2.588,0,0,1,.78-1.875c.144-.18.288-.36.422-.553a1,1,0,1,0-1.64-1.144Z"/><path d="M25.833,14.728a5.024,5.024,0,0,0-1.052-1.854A2.587,2.587,0,0,1,24,11a2.663,2.663,0,0,1,.091-.727,1,1,0,0,0-1.925-.542A4.593,4.593,0,0,0,22,11a4.529,4.529,0,0,0,1.219,3.125,3.227,3.227,0,0,1,.691,1.149,1,1,0,1,0,1.923-.544Z"/><path d="M25,5a1,1,0,0,0-1,1,2.618,2.618,0,0,1-.091.725A1,1,0,0,0,24.6,7.962,1.048,1.048,0,0,0,24.871,8a1,1,0,0,0,.961-.725A4.578,4.578,0,0,0,26,6,1,1,0,0,0,25,5Z"/><path d="M30,21a1,1,0,0,0,2,0,2.587,2.587,0,0,1,.781-1.876,4.615,4.615,0,0,0,0-6.25,3.24,3.24,0,0,1-.69-1.147,1,1,0,1,0-1.924.546,5.038,5.038,0,0,0,1.052,1.85,2.642,2.642,0,0,1,0,3.751A4.53,4.53,0,0,0,30,21Z"/><path d="M33,5a1,1,0,0,0-1,1,2.584,2.584,0,0,1-.781,1.874,1,1,0,0,0,1.562,1.25A4.528,4.528,0,0,0,34,6,1,1,0,0,0,33,5Z"/><path d="M39.562,17.428c-.109.156-.227.3-.344.448A4.528,4.528,0,0,0,38,21a1,1,0,0,0,2,0,2.588,2.588,0,0,1,.78-1.875c.144-.18.288-.36.422-.553a1,1,0,1,0-1.64-1.144Z"/><path d="M41.834,14.728a5.052,5.052,0,0,0-1.053-1.855A2.585,2.585,0,0,1,40,11a2.663,2.663,0,0,1,.091-.727,1,1,0,0,0-1.925-.542A4.593,4.593,0,0,0,38,11a4.529,4.529,0,0,0,1.219,3.125,3.209,3.209,0,0,1,.69,1.149,1,1,0,0,0,1.925-.544Z"/><path d="M41,5a1,1,0,0,0-1,1,2.665,2.665,0,0,1-.091.728,1,1,0,0,0,.69,1.234A.983.983,0,0,0,40.872,8a1,1,0,0,0,.961-.728A4.614,4.614,0,0,0,42,6,1,1,0,0,0,41,5Z"/></g></svg>