<?xml version="1.0" ?><!DOCTYPE svg  PUBLIC '-//W3C//DTD SVG 1.1//EN'  'http://www.w3.org/Graphics/SVG/1.1/DTD/svg11.dtd'><svg enable-background="new 0 0 64 64" height="64px" id="GLASS" version="1.1" viewBox="0 0 64 64" width="64px" xml:space="preserve" xmlns="http://www.w3.org/2000/svg" xmlns:xlink="http://www.w3.org/1999/xlink"><g id="GLASS_1_"><path d="M33.648,51.994C33.018,51.57,32.449,51.1,32,50.602c-0.447,0.498-1.018,0.969-1.648,1.393H33.648z" fill="#E3FFFB"/><path d="M30.352,51.994h3.297C33.018,51.57,32.449,51.1,32,50.602C31.553,51.1,30.982,51.57,30.352,51.994z" fill="#FFFFFF"/><path d="M26,32.588c0,3.309,2.691,6,6,6s6-2.691,6-6V19.547H26V32.588z" fill="#F5D76E"/><rect fill="#E3FFFB" height="7.542" width="12" x="26" y="12.005"/><circle cx="34.6" cy="23.947" fill="#FFFFFF" r="1.4"/><circle cx="33.6" cy="28.748" fill="#FFFFFF" r="1.4"/><path d="M39.375,51.994H39c-2.107,0-5.936-2.441-6-3.516v-0.025V40.52c3.941-0.496,7-3.859,7-7.932V11.005   c0-0.553-0.447-1-1-1H25c-0.553,0-1,0.447-1,1v21.583c0,4.072,3.061,7.436,7,7.932v7.928c0,0.002,0,0.004,0,0.006   c0,1.059-3.875,3.541-6,3.541h-0.375c-0.553,0-1,0.447-1,1s0.447,1,1,1h14.75c0.553,0,1-0.447,1-1S39.928,51.994,39.375,51.994z    M26,32.588V12.005h12v20.583c0,3.309-2.691,6-6,6S26,35.896,26,32.588z M30.352,51.994C30.982,51.57,31.553,51.1,32,50.602   c0.449,0.498,1.018,0.969,1.648,1.393H30.352z" fill="#26251D"/></g></svg>